<mxfile host="app.diagrams.net" modified="2021-09-30T18:19:32.538Z" agent="5.0 (Macintosh; Intel Mac OS X 10_15_7) AppleWebKit/537.36 (KHTML, like Gecko) Chrome/94.0.4606.61 Safari/537.36" etag="T3SD6D9608KhSBuZMReK" version="15.3.5" type="github">
  <diagram id="qBWY4U63Su1hnSPOyD-Q" name="Page-1">
    <mxGraphModel dx="1425" dy="801" grid="1" gridSize="10" guides="1" tooltips="1" connect="1" arrows="1" fold="1" page="1" pageScale="1" pageWidth="827" pageHeight="1169" math="0" shadow="0">
      <root>
        <mxCell id="0" />
        <mxCell id="1" parent="0" />
        <mxCell id="0ALMaKBpj158dZOHThfQ-28" value="" style="rounded=1;whiteSpace=wrap;html=1;hachureGap=4;pointerEvents=0;strokeWidth=3;fillColor=none;strokeColor=#6c8ebf;arcSize=5;" vertex="1" parent="1">
          <mxGeometry x="120" y="230" width="280" height="290" as="geometry" />
        </mxCell>
        <mxCell id="0ALMaKBpj158dZOHThfQ-14" value="" style="shape=flexArrow;endArrow=classic;html=1;startSize=14;endSize=19.71;sourcePerimeterSpacing=8;targetPerimeterSpacing=8;endWidth=67;width=53;fillColor=#dae8fc;strokeColor=#6c8ebf;strokeWidth=2;" edge="1" parent="1">
          <mxGeometry width="50" height="50" relative="1" as="geometry">
            <mxPoint x="145" y="298.5" as="sourcePoint" />
            <mxPoint x="375" y="299" as="targetPoint" />
          </mxGeometry>
        </mxCell>
        <mxCell id="0ALMaKBpj158dZOHThfQ-17" value="" style="whiteSpace=wrap;html=1;aspect=fixed;hachureGap=4;pointerEvents=0;strokeWidth=2;fillColor=#f5f5f5;strokeColor=#666666;fontColor=#333333;" vertex="1" parent="1">
          <mxGeometry x="155" y="284" width="30" height="30" as="geometry" />
        </mxCell>
        <mxCell id="0ALMaKBpj158dZOHThfQ-20" value="" style="whiteSpace=wrap;html=1;aspect=fixed;hachureGap=4;pointerEvents=0;strokeWidth=2;fillColor=#f5f5f5;strokeColor=#666666;fontColor=#333333;" vertex="1" parent="1">
          <mxGeometry x="195" y="284" width="30" height="30" as="geometry" />
        </mxCell>
        <mxCell id="0ALMaKBpj158dZOHThfQ-24" value="" style="whiteSpace=wrap;html=1;aspect=fixed;hachureGap=4;pointerEvents=0;strokeWidth=2;fillColor=#f5f5f5;strokeColor=#666666;fontColor=#333333;" vertex="1" parent="1">
          <mxGeometry x="233.5" y="284" width="30" height="30" as="geometry" />
        </mxCell>
        <mxCell id="0ALMaKBpj158dZOHThfQ-25" value="" style="whiteSpace=wrap;html=1;aspect=fixed;hachureGap=4;pointerEvents=0;strokeWidth=2;fillColor=#f5f5f5;strokeColor=#666666;fontColor=#333333;" vertex="1" parent="1">
          <mxGeometry x="275" y="284" width="30" height="30" as="geometry" />
        </mxCell>
        <mxCell id="0ALMaKBpj158dZOHThfQ-26" value="&lt;font style=&quot;font-size: 41px&quot;&gt;...&lt;/font&gt;" style="text;html=1;align=center;verticalAlign=middle;resizable=0;points=[];autosize=1;strokeColor=none;fillColor=none;" vertex="1" parent="1">
          <mxGeometry x="305" y="272" width="50" height="30" as="geometry" />
        </mxCell>
        <mxCell id="0ALMaKBpj158dZOHThfQ-122" style="edgeStyle=none;curved=1;rounded=0;orthogonalLoop=1;jettySize=auto;html=1;exitX=0.5;exitY=0;exitDx=0;exitDy=0;entryX=0.5;entryY=1;entryDx=0;entryDy=0;endArrow=classic;endFill=1;startSize=8;endSize=8;sourcePerimeterSpacing=8;targetPerimeterSpacing=8;" edge="1" parent="1" source="0ALMaKBpj158dZOHThfQ-73" target="0ALMaKBpj158dZOHThfQ-17">
          <mxGeometry relative="1" as="geometry" />
        </mxCell>
        <mxCell id="0ALMaKBpj158dZOHThfQ-123" style="edgeStyle=none;curved=1;rounded=0;orthogonalLoop=1;jettySize=auto;html=1;exitX=0.5;exitY=0;exitDx=0;exitDy=0;entryX=0.5;entryY=1;entryDx=0;entryDy=0;endArrow=classic;endFill=1;startSize=8;endSize=8;sourcePerimeterSpacing=8;targetPerimeterSpacing=8;" edge="1" parent="1" source="0ALMaKBpj158dZOHThfQ-73" target="0ALMaKBpj158dZOHThfQ-24">
          <mxGeometry relative="1" as="geometry" />
        </mxCell>
        <mxCell id="0ALMaKBpj158dZOHThfQ-73" value="&lt;font style=&quot;font-size: 16px&quot;&gt;App&lt;/font&gt;" style="rounded=0;whiteSpace=wrap;html=1;hachureGap=4;pointerEvents=0;strokeWidth=1;fillColor=#f5f5f5;strokeColor=#666666;fontColor=#333333;" vertex="1" parent="1">
          <mxGeometry x="155" y="370" width="60" height="30" as="geometry" />
        </mxCell>
        <mxCell id="0ALMaKBpj158dZOHThfQ-79" value="" style="shape=flexArrow;endArrow=classic;html=1;startSize=14;endSize=19.71;sourcePerimeterSpacing=8;targetPerimeterSpacing=8;endWidth=67;width=53;fillColor=#f8cecc;strokeColor=#b85450;strokeWidth=2;" edge="1" parent="1">
          <mxGeometry width="50" height="50" relative="1" as="geometry">
            <mxPoint x="465.75" y="298.5" as="sourcePoint" />
            <mxPoint x="695.75" y="299" as="targetPoint" />
          </mxGeometry>
        </mxCell>
        <mxCell id="0ALMaKBpj158dZOHThfQ-80" value="" style="whiteSpace=wrap;html=1;aspect=fixed;hachureGap=4;pointerEvents=0;strokeWidth=2;fillColor=#f5f5f5;strokeColor=#666666;fontColor=#333333;" vertex="1" parent="1">
          <mxGeometry x="475.75" y="284" width="30" height="30" as="geometry" />
        </mxCell>
        <mxCell id="0ALMaKBpj158dZOHThfQ-81" value="" style="whiteSpace=wrap;html=1;aspect=fixed;hachureGap=4;pointerEvents=0;strokeWidth=2;fillColor=#f5f5f5;strokeColor=#666666;fontColor=#333333;" vertex="1" parent="1">
          <mxGeometry x="515.75" y="284" width="30" height="30" as="geometry" />
        </mxCell>
        <mxCell id="0ALMaKBpj158dZOHThfQ-82" value="" style="whiteSpace=wrap;html=1;aspect=fixed;hachureGap=4;pointerEvents=0;strokeWidth=2;fillColor=#f5f5f5;strokeColor=#666666;fontColor=#333333;" vertex="1" parent="1">
          <mxGeometry x="554.25" y="284" width="30" height="30" as="geometry" />
        </mxCell>
        <mxCell id="0ALMaKBpj158dZOHThfQ-83" value="" style="whiteSpace=wrap;html=1;aspect=fixed;hachureGap=4;pointerEvents=0;strokeWidth=2;fillColor=#f5f5f5;strokeColor=#666666;fontColor=#333333;" vertex="1" parent="1">
          <mxGeometry x="595.75" y="284" width="30" height="30" as="geometry" />
        </mxCell>
        <mxCell id="0ALMaKBpj158dZOHThfQ-84" value="&lt;font style=&quot;font-size: 41px&quot;&gt;...&lt;/font&gt;" style="text;html=1;align=center;verticalAlign=middle;resizable=0;points=[];autosize=1;strokeColor=none;fillColor=none;" vertex="1" parent="1">
          <mxGeometry x="625.75" y="272" width="50" height="30" as="geometry" />
        </mxCell>
        <mxCell id="0ALMaKBpj158dZOHThfQ-86" value="" style="rounded=1;whiteSpace=wrap;html=1;hachureGap=4;pointerEvents=0;strokeWidth=3;fillColor=none;strokeColor=#b85450;arcSize=5;" vertex="1" parent="1">
          <mxGeometry x="440" y="230" width="280" height="290" as="geometry" />
        </mxCell>
        <mxCell id="0ALMaKBpj158dZOHThfQ-88" value="" style="shape=flexArrow;endArrow=classic;html=1;startSize=14;endSize=19.71;sourcePerimeterSpacing=8;targetPerimeterSpacing=8;endWidth=67;width=53;fillColor=#ffe6cc;strokeColor=#d79b00;strokeWidth=2;" edge="1" parent="1">
          <mxGeometry width="50" height="50" relative="1" as="geometry">
            <mxPoint x="160" y="584.66" as="sourcePoint" />
            <mxPoint x="680" y="584.66" as="targetPoint" />
          </mxGeometry>
        </mxCell>
        <mxCell id="0ALMaKBpj158dZOHThfQ-90" value="" style="whiteSpace=wrap;html=1;aspect=fixed;hachureGap=4;pointerEvents=0;strokeWidth=2;fillColor=#f5f5f5;strokeColor=#666666;fontColor=#333333;" vertex="1" parent="1">
          <mxGeometry x="410" y="570" width="30" height="30" as="geometry" />
        </mxCell>
        <mxCell id="0ALMaKBpj158dZOHThfQ-91" value="" style="whiteSpace=wrap;html=1;aspect=fixed;hachureGap=4;pointerEvents=0;strokeWidth=2;fillColor=#f5f5f5;strokeColor=#666666;fontColor=#333333;" vertex="1" parent="1">
          <mxGeometry x="370" y="570" width="30" height="30" as="geometry" />
        </mxCell>
        <mxCell id="0ALMaKBpj158dZOHThfQ-92" value="" style="whiteSpace=wrap;html=1;aspect=fixed;hachureGap=4;pointerEvents=0;strokeWidth=2;fillColor=#f5f5f5;strokeColor=#666666;fontColor=#333333;" vertex="1" parent="1">
          <mxGeometry x="330" y="570" width="30" height="30" as="geometry" />
        </mxCell>
        <mxCell id="0ALMaKBpj158dZOHThfQ-93" value="&lt;font style=&quot;font-size: 41px&quot;&gt;...&lt;/font&gt;" style="text;html=1;align=center;verticalAlign=middle;resizable=0;points=[];autosize=1;strokeColor=none;fillColor=none;" vertex="1" parent="1">
          <mxGeometry x="601" y="558" width="50" height="30" as="geometry" />
        </mxCell>
        <mxCell id="0ALMaKBpj158dZOHThfQ-97" value="" style="whiteSpace=wrap;html=1;aspect=fixed;hachureGap=4;pointerEvents=0;strokeWidth=2;fillColor=#f5f5f5;strokeColor=#666666;fontColor=#333333;" vertex="1" parent="1">
          <mxGeometry x="290" y="570" width="30" height="30" as="geometry" />
        </mxCell>
        <mxCell id="0ALMaKBpj158dZOHThfQ-98" value="" style="whiteSpace=wrap;html=1;aspect=fixed;hachureGap=4;pointerEvents=0;strokeWidth=2;fillColor=#f5f5f5;strokeColor=#666666;fontColor=#333333;" vertex="1" parent="1">
          <mxGeometry x="250" y="570" width="30" height="30" as="geometry" />
        </mxCell>
        <mxCell id="0ALMaKBpj158dZOHThfQ-99" value="" style="whiteSpace=wrap;html=1;aspect=fixed;hachureGap=4;pointerEvents=0;strokeWidth=2;fillColor=#f5f5f5;strokeColor=#666666;fontColor=#333333;" vertex="1" parent="1">
          <mxGeometry x="210" y="570" width="30" height="30" as="geometry" />
        </mxCell>
        <mxCell id="0ALMaKBpj158dZOHThfQ-100" value="" style="whiteSpace=wrap;html=1;aspect=fixed;hachureGap=4;pointerEvents=0;strokeWidth=2;fillColor=#f5f5f5;strokeColor=#666666;fontColor=#333333;" vertex="1" parent="1">
          <mxGeometry x="170" y="570" width="30" height="30" as="geometry" />
        </mxCell>
        <mxCell id="0ALMaKBpj158dZOHThfQ-102" value="" style="rounded=1;whiteSpace=wrap;html=1;hachureGap=4;pointerEvents=0;strokeWidth=3;fillColor=none;strokeColor=#82b366;arcSize=9;" vertex="1" parent="1">
          <mxGeometry x="583.5" y="380" width="128.5" height="130" as="geometry" />
        </mxCell>
        <mxCell id="0ALMaKBpj158dZOHThfQ-105" value="" style="whiteSpace=wrap;html=1;aspect=fixed;hachureGap=4;pointerEvents=0;strokeWidth=2;fillColor=#f5f5f5;strokeColor=#666666;fontColor=#333333;" vertex="1" parent="1">
          <mxGeometry x="450" y="570" width="30" height="30" as="geometry" />
        </mxCell>
        <mxCell id="0ALMaKBpj158dZOHThfQ-106" value="" style="whiteSpace=wrap;html=1;aspect=fixed;hachureGap=4;pointerEvents=0;strokeWidth=2;fillColor=#f5f5f5;strokeColor=#666666;fontColor=#333333;" vertex="1" parent="1">
          <mxGeometry x="530" y="570" width="30" height="30" as="geometry" />
        </mxCell>
        <mxCell id="0ALMaKBpj158dZOHThfQ-107" value="" style="whiteSpace=wrap;html=1;aspect=fixed;hachureGap=4;pointerEvents=0;strokeWidth=2;fillColor=#f5f5f5;strokeColor=#666666;fontColor=#333333;" vertex="1" parent="1">
          <mxGeometry x="490" y="570" width="30" height="30" as="geometry" />
        </mxCell>
        <mxCell id="0ALMaKBpj158dZOHThfQ-108" value="" style="whiteSpace=wrap;html=1;aspect=fixed;hachureGap=4;pointerEvents=0;strokeWidth=2;fillColor=#f5f5f5;strokeColor=#666666;fontColor=#333333;" vertex="1" parent="1">
          <mxGeometry x="570" y="570" width="30" height="30" as="geometry" />
        </mxCell>
        <mxCell id="0ALMaKBpj158dZOHThfQ-109" value="" style="shape=flexArrow;endArrow=classic;html=1;startSize=14;endSize=12.179310344827586;sourcePerimeterSpacing=8;targetPerimeterSpacing=8;endWidth=35.862068965517246;width=27.586206896551726;fillColor=#d5e8d4;strokeColor=#82b366;strokeWidth=2;" edge="1" parent="1">
          <mxGeometry width="50" height="50" relative="1" as="geometry">
            <mxPoint x="598.5" y="470.65999999999997" as="sourcePoint" />
            <mxPoint x="698.5" y="471" as="targetPoint" />
          </mxGeometry>
        </mxCell>
        <mxCell id="0ALMaKBpj158dZOHThfQ-110" value="" style="whiteSpace=wrap;html=1;aspect=fixed;hachureGap=4;pointerEvents=0;strokeWidth=2;fillColor=#f5f5f5;strokeColor=#666666;fontColor=#333333;" vertex="1" parent="1">
          <mxGeometry x="608.5" y="462" width="18" height="18" as="geometry" />
        </mxCell>
        <mxCell id="0ALMaKBpj158dZOHThfQ-111" value="" style="whiteSpace=wrap;html=1;aspect=fixed;hachureGap=4;pointerEvents=0;strokeWidth=2;fillColor=#f5f5f5;strokeColor=#666666;fontColor=#333333;" vertex="1" parent="1">
          <mxGeometry x="636.5" y="462" width="18" height="18" as="geometry" />
        </mxCell>
        <mxCell id="0ALMaKBpj158dZOHThfQ-114" value="&lt;font style=&quot;font-size: 33px&quot;&gt;...&lt;/font&gt;" style="text;html=1;align=center;verticalAlign=middle;resizable=0;points=[];autosize=1;strokeColor=none;fillColor=none;" vertex="1" parent="1">
          <mxGeometry x="653.5" y="448" width="40" height="30" as="geometry" />
        </mxCell>
        <mxCell id="0ALMaKBpj158dZOHThfQ-125" style="edgeStyle=none;curved=1;rounded=0;orthogonalLoop=1;jettySize=auto;html=1;exitX=0.5;exitY=0;exitDx=0;exitDy=0;endArrow=classic;endFill=1;startSize=8;endSize=8;sourcePerimeterSpacing=8;targetPerimeterSpacing=8;" edge="1" parent="1" source="0ALMaKBpj158dZOHThfQ-119">
          <mxGeometry relative="1" as="geometry">
            <mxPoint x="320" y="310" as="targetPoint" />
          </mxGeometry>
        </mxCell>
        <mxCell id="0ALMaKBpj158dZOHThfQ-134" style="edgeStyle=none;curved=1;rounded=0;orthogonalLoop=1;jettySize=auto;html=1;exitX=0.5;exitY=1;exitDx=0;exitDy=0;entryX=0.5;entryY=0;entryDx=0;entryDy=0;endArrow=classic;endFill=1;startSize=8;endSize=8;sourcePerimeterSpacing=8;targetPerimeterSpacing=8;" edge="1" parent="1" source="0ALMaKBpj158dZOHThfQ-119" target="0ALMaKBpj158dZOHThfQ-91">
          <mxGeometry relative="1" as="geometry" />
        </mxCell>
        <mxCell id="0ALMaKBpj158dZOHThfQ-119" value="&lt;font style=&quot;font-size: 16px&quot;&gt;App&lt;/font&gt;" style="rounded=0;whiteSpace=wrap;html=1;hachureGap=4;pointerEvents=0;strokeWidth=1;fillColor=#f5f5f5;strokeColor=#666666;fontColor=#333333;" vertex="1" parent="1">
          <mxGeometry x="305" y="432" width="60" height="30" as="geometry" />
        </mxCell>
        <mxCell id="0ALMaKBpj158dZOHThfQ-127" style="edgeStyle=none;curved=1;rounded=0;orthogonalLoop=1;jettySize=auto;html=1;exitX=0.5;exitY=1;exitDx=0;exitDy=0;entryX=0.5;entryY=0;entryDx=0;entryDy=0;endArrow=classic;endFill=1;startSize=8;endSize=8;sourcePerimeterSpacing=8;targetPerimeterSpacing=8;" edge="1" parent="1" source="0ALMaKBpj158dZOHThfQ-120" target="0ALMaKBpj158dZOHThfQ-98">
          <mxGeometry relative="1" as="geometry" />
        </mxCell>
        <mxCell id="0ALMaKBpj158dZOHThfQ-129" style="edgeStyle=none;curved=1;rounded=0;orthogonalLoop=1;jettySize=auto;html=1;exitX=0.5;exitY=1;exitDx=0;exitDy=0;entryX=0.5;entryY=0;entryDx=0;entryDy=0;endArrow=classic;endFill=1;startSize=8;endSize=8;sourcePerimeterSpacing=8;targetPerimeterSpacing=8;" edge="1" parent="1" source="0ALMaKBpj158dZOHThfQ-120" target="0ALMaKBpj158dZOHThfQ-99">
          <mxGeometry relative="1" as="geometry" />
        </mxCell>
        <mxCell id="0ALMaKBpj158dZOHThfQ-130" style="edgeStyle=none;curved=1;rounded=0;orthogonalLoop=1;jettySize=auto;html=1;exitX=0.5;exitY=1;exitDx=0;exitDy=0;entryX=0.5;entryY=0;entryDx=0;entryDy=0;endArrow=classic;endFill=1;startSize=8;endSize=8;sourcePerimeterSpacing=8;targetPerimeterSpacing=8;" edge="1" parent="1" source="0ALMaKBpj158dZOHThfQ-120" target="0ALMaKBpj158dZOHThfQ-92">
          <mxGeometry relative="1" as="geometry" />
        </mxCell>
        <mxCell id="0ALMaKBpj158dZOHThfQ-120" value="&lt;font style=&quot;font-size: 16px&quot;&gt;App&lt;/font&gt;" style="rounded=0;whiteSpace=wrap;html=1;hachureGap=4;pointerEvents=0;strokeWidth=1;fillColor=#f5f5f5;strokeColor=#666666;fontColor=#333333;" vertex="1" parent="1">
          <mxGeometry x="210" y="462" width="60" height="30" as="geometry" />
        </mxCell>
        <mxCell id="0ALMaKBpj158dZOHThfQ-124" value="&lt;font style=&quot;font-size: 14px&quot;&gt;Read&lt;/font&gt;" style="text;html=1;align=center;verticalAlign=middle;resizable=0;points=[];autosize=1;strokeColor=none;fillColor=none;" vertex="1" parent="1">
          <mxGeometry x="171" y="328" width="50" height="20" as="geometry" />
        </mxCell>
        <mxCell id="0ALMaKBpj158dZOHThfQ-126" value="&lt;font style=&quot;font-size: 14px&quot;&gt;Append&lt;/font&gt;" style="text;html=1;align=center;verticalAlign=middle;resizable=0;points=[];autosize=1;strokeColor=none;fillColor=none;" vertex="1" parent="1">
          <mxGeometry x="325" y="360" width="60" height="20" as="geometry" />
        </mxCell>
        <mxCell id="0ALMaKBpj158dZOHThfQ-131" value="&lt;font style=&quot;font-size: 14px&quot;&gt;Read&lt;/font&gt;" style="text;html=1;align=center;verticalAlign=middle;resizable=0;points=[];autosize=1;strokeColor=none;fillColor=none;" vertex="1" parent="1">
          <mxGeometry x="264" y="495" width="50" height="20" as="geometry" />
        </mxCell>
        <mxCell id="0ALMaKBpj158dZOHThfQ-136" style="edgeStyle=none;curved=1;rounded=0;orthogonalLoop=1;jettySize=auto;html=1;exitX=0.5;exitY=0;exitDx=0;exitDy=0;entryX=0.5;entryY=1;entryDx=0;entryDy=0;endArrow=classic;endFill=1;startSize=8;endSize=8;sourcePerimeterSpacing=8;targetPerimeterSpacing=8;" edge="1" parent="1" source="0ALMaKBpj158dZOHThfQ-132" target="0ALMaKBpj158dZOHThfQ-80">
          <mxGeometry relative="1" as="geometry" />
        </mxCell>
        <mxCell id="0ALMaKBpj158dZOHThfQ-132" value="&lt;font style=&quot;font-size: 16px&quot;&gt;App&lt;/font&gt;" style="rounded=0;whiteSpace=wrap;html=1;hachureGap=4;pointerEvents=0;strokeWidth=1;fillColor=#f5f5f5;strokeColor=#666666;fontColor=#333333;" vertex="1" parent="1">
          <mxGeometry x="493.5" y="380" width="60" height="30" as="geometry" />
        </mxCell>
        <mxCell id="0ALMaKBpj158dZOHThfQ-135" value="&lt;font style=&quot;font-size: 14px&quot;&gt;Read&lt;/font&gt;" style="text;html=1;align=center;verticalAlign=middle;resizable=0;points=[];autosize=1;strokeColor=none;fillColor=none;" vertex="1" parent="1">
          <mxGeometry x="350" y="490" width="50" height="20" as="geometry" />
        </mxCell>
        <mxCell id="0ALMaKBpj158dZOHThfQ-138" style="edgeStyle=none;curved=1;rounded=0;orthogonalLoop=1;jettySize=auto;html=1;exitX=0.5;exitY=0;exitDx=0;exitDy=0;entryX=0.5;entryY=1;entryDx=0;entryDy=0;endArrow=classic;endFill=1;startSize=8;endSize=8;sourcePerimeterSpacing=8;targetPerimeterSpacing=8;" edge="1" parent="1" source="0ALMaKBpj158dZOHThfQ-137" target="0ALMaKBpj158dZOHThfQ-82">
          <mxGeometry relative="1" as="geometry" />
        </mxCell>
        <mxCell id="0ALMaKBpj158dZOHThfQ-139" style="edgeStyle=none;curved=1;rounded=0;orthogonalLoop=1;jettySize=auto;html=1;exitX=0.5;exitY=0;exitDx=0;exitDy=0;endArrow=classic;endFill=1;startSize=8;endSize=8;sourcePerimeterSpacing=8;targetPerimeterSpacing=8;" edge="1" parent="1" source="0ALMaKBpj158dZOHThfQ-137">
          <mxGeometry relative="1" as="geometry">
            <mxPoint x="640" y="310" as="targetPoint" />
          </mxGeometry>
        </mxCell>
        <mxCell id="0ALMaKBpj158dZOHThfQ-143" style="edgeStyle=none;curved=1;rounded=0;orthogonalLoop=1;jettySize=auto;html=1;exitX=0.5;exitY=1;exitDx=0;exitDy=0;entryX=0.5;entryY=0;entryDx=0;entryDy=0;endArrow=classic;endFill=1;startSize=8;endSize=8;sourcePerimeterSpacing=8;targetPerimeterSpacing=8;" edge="1" parent="1" source="0ALMaKBpj158dZOHThfQ-137" target="0ALMaKBpj158dZOHThfQ-111">
          <mxGeometry relative="1" as="geometry" />
        </mxCell>
        <mxCell id="0ALMaKBpj158dZOHThfQ-137" value="&lt;font style=&quot;font-size: 16px&quot;&gt;App&lt;/font&gt;" style="rounded=0;whiteSpace=wrap;html=1;hachureGap=4;pointerEvents=0;strokeWidth=1;fillColor=#f5f5f5;strokeColor=#666666;fontColor=#333333;" vertex="1" parent="1">
          <mxGeometry x="620" y="390" width="60" height="30" as="geometry" />
        </mxCell>
        <mxCell id="0ALMaKBpj158dZOHThfQ-140" value="&lt;font style=&quot;font-size: 14px&quot;&gt;Read&lt;/font&gt;" style="text;html=1;align=center;verticalAlign=middle;resizable=0;points=[];autosize=1;strokeColor=none;fillColor=none;" vertex="1" parent="1">
          <mxGeometry x="455.75" y="352" width="50" height="20" as="geometry" />
        </mxCell>
        <mxCell id="0ALMaKBpj158dZOHThfQ-141" value="&lt;font style=&quot;font-size: 14px&quot;&gt;Read&lt;/font&gt;" style="text;html=1;align=center;verticalAlign=middle;resizable=0;points=[];autosize=1;strokeColor=none;fillColor=none;" vertex="1" parent="1">
          <mxGeometry x="554.25" y="346" width="50" height="20" as="geometry" />
        </mxCell>
        <mxCell id="0ALMaKBpj158dZOHThfQ-142" value="&lt;font style=&quot;font-size: 14px&quot;&gt;Append&lt;/font&gt;" style="text;html=1;align=center;verticalAlign=middle;resizable=0;points=[];autosize=1;strokeColor=none;fillColor=none;" vertex="1" parent="1">
          <mxGeometry x="644.25" y="352" width="60" height="20" as="geometry" />
        </mxCell>
        <mxCell id="0ALMaKBpj158dZOHThfQ-145" style="edgeStyle=none;curved=1;rounded=0;orthogonalLoop=1;jettySize=auto;html=1;exitX=0.5;exitY=1;exitDx=0;exitDy=0;entryX=0.5;entryY=0;entryDx=0;entryDy=0;endArrow=classic;endFill=1;startSize=8;endSize=8;sourcePerimeterSpacing=8;targetPerimeterSpacing=8;" edge="1" parent="1" source="0ALMaKBpj158dZOHThfQ-144" target="0ALMaKBpj158dZOHThfQ-107">
          <mxGeometry relative="1" as="geometry" />
        </mxCell>
        <mxCell id="0ALMaKBpj158dZOHThfQ-147" style="edgeStyle=none;curved=1;rounded=0;orthogonalLoop=1;jettySize=auto;html=1;exitX=0.5;exitY=1;exitDx=0;exitDy=0;entryX=0.18;entryY=0.4;entryDx=0;entryDy=0;entryPerimeter=0;endArrow=classic;endFill=1;startSize=8;endSize=8;sourcePerimeterSpacing=8;targetPerimeterSpacing=8;" edge="1" parent="1" source="0ALMaKBpj158dZOHThfQ-144" target="0ALMaKBpj158dZOHThfQ-93">
          <mxGeometry relative="1" as="geometry" />
        </mxCell>
        <mxCell id="0ALMaKBpj158dZOHThfQ-144" value="&lt;font style=&quot;font-size: 16px&quot;&gt;App&lt;/font&gt;" style="rounded=0;whiteSpace=wrap;html=1;hachureGap=4;pointerEvents=0;strokeWidth=1;fillColor=#f5f5f5;strokeColor=#666666;fontColor=#333333;" vertex="1" parent="1">
          <mxGeometry x="470" y="462" width="60" height="30" as="geometry" />
        </mxCell>
        <mxCell id="0ALMaKBpj158dZOHThfQ-148" value="&lt;font style=&quot;font-size: 14px&quot;&gt;Read&lt;/font&gt;" style="text;html=1;align=center;verticalAlign=middle;resizable=0;points=[];autosize=1;strokeColor=none;fillColor=none;" vertex="1" parent="1">
          <mxGeometry x="455.75" y="521" width="50" height="20" as="geometry" />
        </mxCell>
        <mxCell id="0ALMaKBpj158dZOHThfQ-149" value="&lt;font style=&quot;font-size: 14px&quot;&gt;Append&lt;/font&gt;" style="text;html=1;align=center;verticalAlign=middle;resizable=0;points=[];autosize=1;strokeColor=none;fillColor=none;" vertex="1" parent="1">
          <mxGeometry x="562.75" y="521" width="60" height="20" as="geometry" />
        </mxCell>
      </root>
    </mxGraphModel>
  </diagram>
</mxfile>
